<svg width="1200" height="760" viewBox="0 0 1200 760" fill="none" xmlns="http://www.w3.org/2000/svg">
  <defs>
    <linearGradient id="bg4" x1="0" y1="0" x2="1200" y2="760" gradientUnits="userSpaceOnUse">
      <stop stop-color="#1A0B07" />
      <stop offset="1" stop-color="#4E2A12" />
    </linearGradient>
  </defs>
  <rect width="1200" height="760" fill="url(#bg4)" />
  <path d="M210 500H980L1035 340H215L210 500Z" fill="#3F2419" />
  <path d="M255 340H980V500H255V340Z" fill="#B87F5E" />
  <path d="M370 260H450V360H370V260Z" fill="#1D1411" />
  <path d="M540 260H720V360H540V260Z" fill="#F5E9DC" />
  <path d="M780 260H860V360H780V260Z" fill="#5C3B2A" />
  <circle cx="330" cy="500" r="65" fill="#111111" />
  <circle cx="330" cy="500" r="46" fill="#6F4024" />
  <circle cx="930" cy="500" r="65" fill="#111111" />
  <circle cx="930" cy="500" r="46" fill="#6F4024" />
  <path d="M420 248C470 192 620 180 690 214" stroke="#FFD9B0" stroke-width="24" stroke-linecap="round" opacity="0.65" />
</svg>
